<?xml version="1.0" encoding="UTF-8"?>
<svg xmlns="http://www.w3.org/2000/svg" xmlns:xlink="http://www.w3.org/1999/xlink"
     width="550.0" height="330.0" viewBox="-275.0 -145.0 550.0 330.0">
<defs>
<style type="text/css">
.l7d7 {stroke: rgb(96, 191, 148); fill: rgb(96, 191, 148); fill-opacity: 0.5;}
.l9d9 {stroke: rgb(139, 255, 42); fill: rgb(139, 255, 42); fill-opacity: 0.5;}
.l25d27 {stroke: rgb(116, 85, 255); fill: rgb(116, 85, 255); fill-opacity: 0.5;}
.l50d50 {stroke: rgb(42, 128, 73); fill: rgb(42, 128, 73); fill-opacity: 0.5;}
.l11d11 {stroke: rgb(128, 64, 93); fill: rgb(128, 64, 93); fill-opacity: 0.5;}
.l15d15 {stroke: rgb(128, 255, 139); fill: rgb(128, 255, 139); fill-opacity: 0.5;}
</style>
</defs><rect x="-275.0" y="-145.0" width="550.0" height="330.0" fill="#222" stroke="none"/>
<g id="Layout_INV" transform="scale(1 -1)">
<polygon class="l15d15" points="30.0,-90.0 30.0,50.0 240.0,50.0 240.0,-90.0"/>
<polygon class="l9d9" points="60,-60 60,20 160,20 160,-60"/>
<polygon class="l9d9" points="-210.0,0.0 -210.0,-60.0 -160.0,-60.0 -160.0,0.0"/>
<polygon class="l25d27" points="-60,-60 -60,0 -160,0 -160,-60"/>
<polygon class="l25d27" points="160.0,-60.0 160.0,20.0 210.0,20.0 210.0,-60.0"/>
<polygon class="l7d7" points="120.0,-110.0 120.0,90.0 -120.0,90.0 -120.0,-110.0 -100.0,-110.0 -100.0,70.0 100.0,70.0 100.0,-110.0"/>
<polygon class="l11d11" points="85.0,-60.0 85.0,-20.0 -85.0,-20.0 -85.0,-60.0"/>
<polygon class="l11d11" points="126.66666666666669,-60.0 126.66666666666669,-6.66666666666667 185.0,-6.66666666666667 185.0,120.0 250.0,120.0 250.0,-160.0 185.0,-160.0 185.0,-60.0"/>
<polygon class="l11d11" points="-126.66666666666669,-60.0 -126.66666666666669,-20.0 -185.0,-20.0 -185.0,100.0 -250.0,100.0 -250.0,-160.0 -185.0,-160.0 -185.0,-60.0"/>
<polygon class="l50d50" points="197.5,-53.0 197.5,-20.0 172.5,-20.0 172.5,-53.0"/>
<polygon class="l50d50" points="152.0,-53.0 152.0,-20.0 135.0,-20.0 135.0,-53.0"/>
<polygon class="l50d50" points="78.75,-53.0 78.75,-27.0 66.25,-27.0 66.25,-53.0"/>
<polygon class="l50d50" points="-66.25,-53.0 -66.25,-27.0 -78.75,-27.0 -78.75,-53.0"/>
<polygon class="l50d50" points="-197.5,-53.0 -197.5,-30.0 -172.5,-30.0 -172.5,-53.0"/>
<polygon class="l50d50" points="-152.0,-53.0 -152.0,-30.0 -135.0,-30.0 -135.0,-53.0"/>
</g>
</svg>